<svg width="516" height="500" viewBox="0 0 516 500" fill="none" xmlns="http://www.w3.org/2000/svg">
<path d="M4.88428 145.596C6.31299 150.879 5.61074 141.16 8.40762 129.286C11.2045 117.413 16.0113 122.221 16.0113 122.221" stroke="#263238" stroke-width="1.48791" stroke-linecap="round" stroke-linejoin="round"/>
<path d="M4.01221 133.463L12.7903 130.11" stroke="#263238" stroke-width="1.48791" stroke-linecap="round" stroke-linejoin="round"/>
<path d="M20.0429 126.081C20.0429 126.081 14.8002 136.239 22.7066 140.506" stroke="#263238" stroke-width="1.48791" stroke-linecap="round" stroke-linejoin="round"/>
<path d="M27.4893 123.237C27.4893 123.237 36.1584 127.751 30.7341 137.436" stroke="#263238" stroke-width="1.48791" stroke-linecap="round" stroke-linejoin="round"/>
<path d="M21.5562 129.512L27.7674 133.734" stroke="#263238" stroke-width="1.48791" stroke-linecap="round" stroke-linejoin="round"/>
<path d="M26.424 127.65L21.5688 134.862" stroke="#263238" stroke-width="1.48791" stroke-linecap="round" stroke-linejoin="round"/>
<path d="M54.3165 235.75C55.4979 229.039 50.6197 222.706 43.4206 221.604C36.2215 220.503 29.4277 225.051 28.2462 231.762C27.0647 238.473 31.943 244.806 39.1421 245.908C46.3412 247.009 53.135 242.461 54.3165 235.75Z" stroke="#263238" stroke-width="1.48791" stroke-linecap="round" stroke-linejoin="round"/>
<path d="M62.1519 251.951C70.0781 250.436 75.1857 243.217 73.5601 235.828C71.9346 228.44 64.1914 223.678 56.2652 225.193C48.339 226.709 43.2314 233.927 44.8569 241.316C46.4825 248.705 54.2257 253.467 62.1519 251.951Z" stroke="#263238" stroke-width="1.48791" stroke-linecap="round" stroke-linejoin="round"/>
<path d="M53.3149 228.669L47.2368 230.689" stroke="#263238" stroke-width="1.48791" stroke-linecap="round" stroke-linejoin="round"/>
<path d="M54.1627 231.005L45.4209 233.951" stroke="#263238" stroke-width="1.48791" stroke-linecap="round" stroke-linejoin="round"/>
<path d="M54.4893 233.827L44.7305 237.326" stroke="#263238" stroke-width="1.48791" stroke-linecap="round" stroke-linejoin="round"/>
<path d="M53.7996 237.676L44.9004 241.468" stroke="#263238" stroke-width="1.48791" stroke-linecap="round" stroke-linejoin="round"/>
<path d="M52.2253 240.633L45.4692 243.252" stroke="#263238" stroke-width="1.48791" stroke-linecap="round" stroke-linejoin="round"/>
<path d="M47.6607 214.989C47.2854 213.86 42.9992 213.16 42.8176 216.118C42.636 219.075 47.3338 216.614 48.6656 214.989C48.6656 214.989 46.2441 218.025 47.2611 218.623" stroke="#263238" stroke-width="1.48791" stroke-linecap="round" stroke-linejoin="round"/>
<path d="M71.3917 218.668L67.5898 226.039C67.5898 226.039 69.4908 222.348 71.5248 222.653C74.0311 223.07 72.3603 226.897 69.3334 225.486" stroke="#263238" stroke-width="1.48791" stroke-linecap="round" stroke-linejoin="round"/>
<path d="M485.124 339.011L491.093 344.27" stroke="#263238" stroke-width="1.48791" stroke-linecap="round" stroke-linejoin="round"/>
<path d="M491.093 337.634L486.093 344.598" stroke="#263238" stroke-width="1.48791" stroke-linecap="round" stroke-linejoin="round"/>
<path d="M496.965 339.631L502.947 337.555" stroke="#263238" stroke-width="1.48791" stroke-linecap="round" stroke-linejoin="round"/>
<path d="M505.816 331.753L509.448 334.744" stroke="#263238" stroke-width="1.48791" stroke-linecap="round" stroke-linejoin="round"/>
<path d="M512.233 328.152L507.632 342.871" stroke="#263238" stroke-width="1.48791" stroke-linecap="round" stroke-linejoin="round"/>
<path d="M233.599 256.333L249.666 246.028L270.939 247.416L272.271 272.564L256.652 282.971L237.376 281.661L233.599 256.333Z" stroke="#263238" stroke-width="1.48791" stroke-linecap="round" stroke-linejoin="round"/>
<path d="M237.376 281.661L252.934 271.221L272.27 272.564" stroke="#263238" stroke-width="1.48791" stroke-linecap="round" stroke-linejoin="round"/>
<path d="M252.935 271.221L249.666 246.028" stroke="#263238" stroke-width="1.48791" stroke-linecap="round" stroke-linejoin="round"/>
<path d="M233.599 256.333L254.823 258.624L270.939 247.416" stroke="#263238" stroke-width="1.48791" stroke-linecap="round" stroke-linejoin="round"/>
<path d="M254.824 258.624L256.652 282.971" stroke="#263238" stroke-width="1.48791" stroke-linecap="round" stroke-linejoin="round"/>
<path d="M421.123 171.85L414.003 192.471L436.161 189.683L421.123 171.85Z" stroke="#263238" stroke-width="1.48791" stroke-linecap="round" stroke-linejoin="round"/>
<path d="M421.123 171.85L425.082 190.959" stroke="#263238" stroke-width="1.48791" stroke-linecap="round" stroke-linejoin="round"/>
<path d="M424.453 187.9L427.044 187.516L427.649 190.756" stroke="#263238" stroke-width="1.48791" stroke-linecap="round" stroke-linejoin="round"/>
<path d="M142.088 360.558L153.155 365.625" stroke="#263238" stroke-width="1.48791" stroke-linecap="round" stroke-linejoin="round"/>
<path d="M149.583 356.686L146.411 367.465" stroke="#263238" stroke-width="1.48791" stroke-linecap="round" stroke-linejoin="round"/>
<path d="M151.121 351.426C151.303 351.251 151.526 351.118 151.772 351.038C152.019 350.957 152.282 350.932 152.541 350.964C152.8 350.996 153.048 351.084 153.264 351.221C153.48 351.358 153.658 351.541 153.785 351.754C154.899 353.379 152.719 356.788 152.719 356.788L157.163 355.207" stroke="#263238" stroke-width="1.48791" stroke-linecap="round" stroke-linejoin="round"/>
<path d="M228.974 5.51294C239.544 11.0549 227.436 24.5993 227.436 32.5002C227.436 40.4011 239.544 39.2724 245.598 41.5298C248.019 41.5298 252.862 41.5298 252.729 47.2636" stroke="#263238" stroke-width="1.48791" stroke-linecap="round" stroke-linejoin="round"/>
<path d="M217.193 12.7028C219.033 22.0371 230.511 18.73 237.558 20.8633C249.666 24.5316 242.946 36.1798 239.338 43.2229C237.171 47.4216 235.015 53.3135 238.89 57.2978" stroke="#263238" stroke-width="1.48791" stroke-linecap="round" stroke-linejoin="round"/>
<path d="M218.743 16.3259L231.347 6.56262" stroke="#263238" stroke-width="1.48791" stroke-linecap="round" stroke-linejoin="round"/>
<path d="M223.683 19.2379L233.175 11.9014" stroke="#263238" stroke-width="1.48791" stroke-linecap="round" stroke-linejoin="round"/>
<path d="M229.264 26.6649L237.279 20.7957" stroke="#263238" stroke-width="1.48791" stroke-linecap="round" stroke-linejoin="round"/>
<path d="M227.605 35.4462L243.273 24.9493" stroke="#263238" stroke-width="1.48791" stroke-linecap="round" stroke-linejoin="round"/>
<path d="M233.611 39.5434L244.532 32.0714" stroke="#263238" stroke-width="1.48791" stroke-linecap="round" stroke-linejoin="round"/>
<path d="M238.26 55.4242L251.906 45.0627" stroke="#263238" stroke-width="1.48791" stroke-linecap="round" stroke-linejoin="round"/>
<path d="M238.599 47.275L247.498 41.4396" stroke="#263238" stroke-width="1.48791" stroke-linecap="round" stroke-linejoin="round"/>
<path d="M60.4353 366.18C73.4363 361.333 79.7603 347.578 74.5602 335.458C69.3602 323.338 54.6054 317.443 41.6044 322.291C28.6034 327.138 22.2794 340.893 27.4795 353.013C32.6795 365.133 47.4343 371.028 60.4353 366.18Z" stroke="#263238" stroke-width="1.48791" stroke-linecap="round" stroke-linejoin="round"/>
<path d="M57.3952 321.369C66.2338 311.696 73.7527 306.222 76.6465 308.005C81.0537 310.703 73.1473 329.123 58.9934 349.135C44.8395 369.147 29.7896 383.188 25.3824 380.479C22.4766 378.707 24.9223 370.106 30.9762 358.718" stroke="#263238" stroke-width="1.48791" stroke-linecap="round" stroke-linejoin="round"/>
<path d="M26.2058 349.09C13.8802 345.783 6.01015 341.923 6.50657 338.841C7.22092 333.965 28.5184 332.837 53.9567 336.392C79.3949 339.947 99.3969 346.686 98.6341 351.539C98.0892 354.925 87.7371 356.472 73.0263 355.952" stroke="#263238" stroke-width="1.48791" stroke-linecap="round" stroke-linejoin="round"/>
<path d="M29.4386 331.967C20.1399 316.324 15.4905 304.122 18.6385 302.215C22.7794 299.72 38.7858 315.906 54.3926 338.333C69.9994 360.761 79.286 381.032 75.1573 383.538C72.421 385.186 64.4904 378.662 54.9132 367.555" stroke="#263238" stroke-width="1.48791" stroke-linecap="round" stroke-linejoin="round"/>
<path d="M80.2185 318.231C79.767 318.873 79.1217 319.375 78.3641 319.675C77.6065 319.975 76.7705 320.059 75.9617 319.917C75.1529 319.774 74.4076 319.411 73.8199 318.874C73.2321 318.337 72.8283 317.649 72.6594 316.898C72.4905 316.147 72.5641 315.366 72.8709 314.654C73.1777 313.942 73.704 313.331 74.3832 312.898C75.0624 312.464 75.8642 312.228 76.6873 312.219C77.5104 312.21 78.3178 312.429 79.0077 312.847C79.4672 313.126 79.8631 313.487 80.1728 313.908C80.4825 314.33 80.6998 314.805 80.8123 315.305C80.9248 315.805 80.9302 316.321 80.8283 316.823C80.7264 317.325 80.5192 317.804 80.2185 318.231Z" fill="#263238"/>
<path d="M66.428 377.703C65.9765 378.344 65.3312 378.847 64.5736 379.147C63.8159 379.447 62.98 379.531 62.1712 379.388C61.3624 379.245 60.6171 378.883 60.0293 378.345C59.4416 377.808 59.0378 377.121 58.8689 376.37C58.7 375.619 58.7736 374.838 59.0804 374.126C59.3872 373.414 59.9134 372.802 60.5927 372.369C61.2719 371.935 62.0737 371.699 62.8968 371.69C63.7198 371.682 64.5273 371.9 65.2172 372.319C65.6767 372.597 66.0726 372.958 66.3823 373.38C66.692 373.801 66.9093 374.276 67.0218 374.776C67.1342 375.276 67.1397 375.792 67.0378 376.295C66.9359 376.797 66.7287 377.275 66.428 377.703Z" fill="#263238"/>
<path d="M44.1736 337.351C43.7221 337.993 43.0768 338.496 42.3192 338.796C41.5616 339.096 40.7256 339.179 39.9168 339.037C39.108 338.894 38.3627 338.531 37.7749 337.994C37.1872 337.457 36.7834 336.769 36.6145 336.018C36.4456 335.267 36.5192 334.487 36.826 333.775C37.1328 333.063 37.6591 332.451 38.3383 332.018C39.0175 331.584 39.8193 331.348 40.6424 331.339C41.4654 331.33 42.2729 331.549 42.9628 331.968C43.8882 332.533 44.5355 333.417 44.7625 334.426C44.9894 335.435 44.7777 336.487 44.1736 337.351Z" fill="#263238"/>
<path d="M309.708 168.407H323.97L331.102 156.895L323.97 145.382H309.708L302.576 156.895L309.708 168.407Z" stroke="#263238" stroke-width="1.48791" stroke-linecap="round" stroke-linejoin="round"/>
<path d="M307.637 193.679L300.506 182.166H286.243" stroke="#263238" stroke-width="1.48791" stroke-linecap="round" stroke-linejoin="round"/>
<path d="M288.156 156.894H302.419L309.55 145.382L302.419 133.858H288.156L281.024 145.382L288.156 156.894Z" stroke="#263238" stroke-width="1.48791" stroke-linecap="round" stroke-linejoin="round"/>
<path d="M309.708 145.382H323.97L331.102 133.858L323.97 122.345H309.708L302.576 133.858L309.708 145.382Z" stroke="#263238" stroke-width="1.48791" stroke-linecap="round" stroke-linejoin="round"/>
<path d="M309.551 147.165C310.607 147.165 311.464 146.367 311.464 145.382C311.464 144.397 310.607 143.598 309.551 143.598C308.494 143.598 307.638 144.397 307.638 145.382C307.638 146.367 308.494 147.165 309.551 147.165Z" fill="#263238"/>
<path d="M279.766 122.988C280.822 122.988 281.679 122.19 281.679 121.205C281.679 120.22 280.822 119.422 279.766 119.422C278.709 119.422 277.853 120.22 277.853 121.205C277.853 122.19 278.709 122.988 279.766 122.988Z" fill="#263238"/>
<path d="M305.724 193.679C305.724 193.326 305.836 192.981 306.047 192.688C306.257 192.395 306.555 192.166 306.905 192.031C307.255 191.896 307.639 191.861 308.01 191.93C308.381 191.999 308.722 192.168 308.99 192.418C309.257 192.667 309.44 192.985 309.513 193.331C309.587 193.677 309.549 194.035 309.405 194.361C309.26 194.687 309.015 194.966 308.7 195.162C308.385 195.358 308.015 195.462 307.637 195.462C307.386 195.462 307.137 195.416 306.905 195.326C306.673 195.237 306.462 195.105 306.284 194.94C306.107 194.774 305.966 194.578 305.87 194.361C305.774 194.145 305.724 193.913 305.724 193.679Z" fill="#263238"/>
<path d="M286.243 183.95C287.3 183.95 288.156 183.151 288.156 182.166C288.156 181.181 287.3 180.383 286.243 180.383C285.187 180.383 284.33 181.181 284.33 182.166C284.33 183.151 285.187 183.95 286.243 183.95Z" fill="#263238"/>
<path d="M344.905 134.185C344.905 133.83 345.018 133.482 345.23 133.187C345.442 132.891 345.744 132.661 346.096 132.526C346.449 132.39 346.836 132.356 347.21 132.426C347.584 132.496 347.927 132.668 348.195 132.92C348.464 133.172 348.647 133.493 348.72 133.842C348.792 134.191 348.753 134.552 348.605 134.88C348.457 135.207 348.209 135.487 347.891 135.683C347.572 135.878 347.199 135.982 346.818 135.98C346.566 135.98 346.316 135.933 346.083 135.843C345.85 135.752 345.639 135.62 345.461 135.453C345.283 135.287 345.142 135.089 345.047 134.871C344.952 134.653 344.903 134.42 344.905 134.185Z" fill="#263238"/>
<path d="M300.36 183.95C301.417 183.95 302.273 183.151 302.273 182.166C302.273 181.181 301.417 180.383 300.36 180.383C299.304 180.383 298.447 181.181 298.447 182.166C298.447 183.151 299.304 183.95 300.36 183.95Z" fill="#263238"/>
<path d="M329.189 134.185C329.189 133.83 329.302 133.483 329.513 133.188C329.725 132.893 330.026 132.663 330.377 132.527C330.729 132.391 331.116 132.356 331.49 132.425C331.863 132.494 332.206 132.665 332.475 132.916C332.745 133.167 332.928 133.487 333.002 133.835C333.077 134.183 333.038 134.544 332.893 134.872C332.747 135.2 332.5 135.48 332.184 135.677C331.867 135.874 331.495 135.98 331.114 135.98C330.604 135.98 330.114 135.791 329.753 135.454C329.392 135.117 329.189 134.661 329.189 134.185Z" fill="#263238"/>
<path d="M307.637 168.419C307.635 168.063 307.746 167.714 307.957 167.417C308.167 167.12 308.468 166.889 308.82 166.751C309.172 166.614 309.56 166.578 309.935 166.647C310.31 166.715 310.654 166.887 310.924 167.138C311.194 167.39 311.377 167.711 311.451 168.06C311.525 168.409 311.486 168.771 311.339 169.099C311.191 169.428 310.943 169.708 310.624 169.904C310.306 170.101 309.932 170.204 309.55 170.202C309.044 170.199 308.559 170.01 308.201 169.676C307.843 169.343 307.64 168.891 307.637 168.419Z" fill="#263238"/>
<path d="M331.114 134.162H346.817" stroke="#263238" stroke-width="1.48791" stroke-linecap="round" stroke-linejoin="round"/>
<path d="M309.55 168.419L300.36 182.166" stroke="#263238" stroke-width="1.48791" stroke-linecap="round" stroke-linejoin="round"/>
<path d="M288.156 133.858L279.765 121.205" stroke="#263238" stroke-width="1.48791" stroke-linecap="round" stroke-linejoin="round"/>
<path d="M389.316 88.4726C390.961 83.289 394.39 78.7539 399.074 75.5669C403.757 72.3798 409.436 70.7178 415.233 70.8372C421.03 70.9566 426.624 72.8507 431.153 76.2275C435.681 79.6042 438.891 84.276 440.289 89.5223" stroke="#263238" stroke-width="1.48791" stroke-linecap="round" stroke-linejoin="round"/>
<path d="M411.619 119.896C405.177 119.208 399.231 116.336 394.915 111.825C390.599 107.314 388.214 101.481 388.214 95.4367" stroke="#263238" stroke-width="1.48791" stroke-linecap="round" stroke-linejoin="round"/>
<path d="M441.052 95.4367C441.052 101.964 438.272 108.223 433.322 112.84C428.372 117.456 421.659 120.051 414.657 120.054" stroke="#263238" stroke-width="1.48791" stroke-linecap="round" stroke-linejoin="round"/>
<path d="M442.553 79.8267C450.81 78.8448 456.344 79.3753 457.203 81.6778C458.911 86.2604 441.245 96.1365 417.744 103.744C394.243 111.351 373.818 113.789 372.098 109.196C371.19 106.746 375.815 102.785 383.903 98.4616" stroke="#263238" stroke-width="1.48791" stroke-linecap="round" stroke-linejoin="round"/>
<path d="M300.361 62.9639L302.891 67.7383L308.545 68.5059L304.453 72.2306L305.422 77.479L300.361 74.9959L295.3 77.479L296.268 72.2306L292.176 68.5059L297.83 67.7383L300.361 62.9639Z" stroke="#263238" stroke-width="1.48791" stroke-linecap="round" stroke-linejoin="round"/>
<path d="M121.602 50.2435C121.599 54.4884 119.79 58.5587 116.571 61.5614C113.352 64.5641 108.987 66.2538 104.434 66.2597C103.877 66.2597 103.332 66.2372 102.799 66.192C99.4853 65.899 96.3341 64.7149 93.7287 62.7836C91.1232 60.8523 89.1757 58.2571 88.1228 55.3133C87.0699 52.3695 86.9571 49.204 87.7979 46.2016C88.6387 43.1991 90.3971 40.489 92.8592 38.4007C95.3213 36.3124 98.3811 34.9358 101.667 34.4382C104.952 33.9407 108.322 34.3436 111.367 35.5981C114.412 36.8525 117 38.9044 118.817 41.5044C120.634 44.1043 121.602 47.1404 121.602 50.2435V50.2435Z" stroke="#263238" stroke-width="1.48791" stroke-linecap="round" stroke-linejoin="round"/>
<path d="M118.854 53.1329C118.856 53.6245 118.702 54.1057 118.411 54.5155C118.119 54.9253 117.704 55.2454 117.218 55.435C116.731 55.6247 116.195 55.6755 115.678 55.581C115.16 55.4864 114.685 55.2508 114.311 54.904C113.937 54.5572 113.682 54.1147 113.578 53.6328C113.475 53.1508 113.527 52.6509 113.728 52.1965C113.929 51.7421 114.271 51.3536 114.709 51.0803C115.147 50.8069 115.663 50.661 116.19 50.661C116.894 50.661 117.57 50.9211 118.069 51.3843C118.568 51.8476 118.851 52.4763 118.854 53.1329V53.1329Z" stroke="#263238" stroke-width="1.48791" stroke-linecap="round" stroke-linejoin="round"/>
<path d="M94.941 59.4311C94.9419 60.0194 94.8035 60.6006 94.5356 61.1333C94.2677 61.666 93.8769 62.1369 93.3912 62.5125C91.1334 60.775 89.3944 58.5242 88.3423 55.9773C89.0085 55.5959 89.7762 55.3964 90.558 55.4016C91.1307 55.3942 91.6993 55.4929 92.2307 55.692C92.7622 55.8912 93.2458 56.1868 93.6536 56.5617C94.0615 56.9366 94.3853 57.3834 94.6063 57.876C94.8273 58.3685 94.941 58.8972 94.941 59.4311Z" stroke="#263238" stroke-width="1.48791" stroke-linecap="round" stroke-linejoin="round"/>
<path d="M116.19 61.948C113.015 64.7513 108.807 66.3109 104.434 66.3048C103.877 66.3048 103.332 66.2822 102.799 66.2371C102.702 65.8028 102.653 65.3602 102.654 64.9165C102.655 63.416 103.199 61.9597 104.199 60.7837C105.198 59.6077 106.595 58.7809 108.162 58.4373C109.728 58.0937 111.374 58.2534 112.831 58.8906C114.288 59.5279 115.472 60.6052 116.19 61.948V61.948Z" stroke="#263238" stroke-width="1.48791" stroke-linecap="round" stroke-linejoin="round"/>
<path d="M100.268 43.8889C102.448 43.8889 104.216 42.2415 104.216 40.2093C104.216 38.1771 102.448 36.5297 100.268 36.5297C98.0885 36.5297 96.3213 38.1771 96.3213 40.2093C96.3213 42.2415 98.0885 43.8889 100.268 43.8889Z" stroke="#263238" stroke-width="1.48791" stroke-linecap="round" stroke-linejoin="round"/>
<path d="M103.925 50.661C103.925 50.9981 103.818 51.3276 103.617 51.6079C103.416 51.8882 103.131 52.1066 102.796 52.2356C102.462 52.3646 102.095 52.3984 101.74 52.3326C101.385 52.2668 101.06 52.1045 100.804 51.8662C100.548 51.6278 100.374 51.3241 100.304 50.9935C100.233 50.6629 100.269 50.3202 100.408 50.0088C100.546 49.6974 100.78 49.4312 101.081 49.2439C101.382 49.0566 101.735 48.9567 102.097 48.9567C102.337 48.9567 102.575 49.0008 102.796 49.0864C103.018 49.1721 103.22 49.2976 103.39 49.4559C103.559 49.6141 103.694 49.802 103.786 50.0088C103.878 50.2156 103.925 50.4372 103.925 50.661Z" stroke="#263238" stroke-width="1.48791" stroke-linecap="round" stroke-linejoin="round"/>
<path d="M118.369 40.8978C117.889 41.0447 117.386 41.1171 116.88 41.1122C116.219 41.1122 115.565 40.9907 114.955 40.7546C114.344 40.5185 113.79 40.1724 113.323 39.7363C112.856 39.3001 112.486 38.7824 112.234 38.2128C111.983 37.6432 111.854 37.0329 111.855 36.4168C111.843 36.2213 111.843 36.0254 111.855 35.8299C114.449 36.9825 116.689 38.7254 118.369 40.8978V40.8978Z" stroke="#263238" stroke-width="1.48791" stroke-linecap="round" stroke-linejoin="round"/>
<path d="M513.142 236.096L514.994 232.213L511.991 230.678C512.102 229.994 512.122 229.301 512.052 228.612L515.127 227.213L513.493 223.251L510.199 224.131C509.758 223.579 509.246 223.078 508.674 222.641L509.8 219.617L505.635 217.89L503.976 220.689C503.24 220.604 502.496 220.604 501.76 220.689L500.271 217.822L496.009 219.346L496.966 222.404C496.372 222.823 495.831 223.304 495.355 223.838L492.123 222.788L490.319 226.614L493.321 228.161C493.211 228.844 493.19 229.538 493.261 230.226L490.173 231.615L491.808 235.588L495.101 234.696C495.546 235.25 496.058 235.753 496.627 236.197L495.513 239.211L499.678 240.938L501.325 238.139C502.058 238.242 502.802 238.261 503.54 238.195L505.042 241.073L509.291 239.549L508.347 236.479C508.937 236.065 509.474 235.587 509.945 235.057L513.142 236.096ZM500.477 233.928C499.521 233.532 498.712 232.88 498.154 232.056C497.595 231.231 497.311 230.271 497.338 229.295C497.365 228.32 497.701 227.375 498.304 226.578C498.907 225.781 499.751 225.168 500.727 224.818C501.704 224.468 502.77 224.395 503.79 224.61C504.811 224.824 505.741 225.316 506.462 226.023C507.183 226.73 507.663 227.62 507.841 228.581C508.019 229.542 507.888 230.531 507.463 231.423C506.891 232.617 505.835 233.551 504.525 234.021C503.216 234.49 501.76 234.457 500.477 233.928V233.928Z" stroke="#263238" stroke-width="1.48791" stroke-linecap="round" stroke-linejoin="round"/>
<path d="M491.008 256.017L493.527 250.746L489.458 248.647C489.603 247.72 489.628 246.78 489.531 245.848L493.72 243.951L491.529 238.567L487.061 239.775C486.464 239.02 485.769 238.338 484.991 237.743L486.516 233.635L480.814 231.253L478.574 235.046C477.579 234.913 476.572 234.886 475.571 234.967L473.537 231.073L467.749 233.15L469.045 237.303C468.241 237.87 467.51 238.522 466.866 239.245L462.47 237.868L459.952 243.139L464.02 245.238C463.875 246.165 463.851 247.105 463.948 248.037L459.758 249.933L461.986 255.317L466.454 254.121C467.054 254.873 467.749 255.555 468.524 256.153L466.999 260.25L472.665 262.597L474.905 258.794C475.899 258.932 476.907 258.959 477.908 258.873L479.942 262.767L485.729 260.701L484.434 256.536C485.238 255.973 485.969 255.326 486.613 254.606L491.008 256.017ZM473.815 253.071C472.516 252.531 471.417 251.644 470.658 250.522C469.9 249.4 469.515 248.093 469.553 246.767C469.592 245.441 470.051 244.156 470.873 243.073C471.695 241.99 472.844 241.16 474.172 240.686C475.501 240.212 476.951 240.116 478.339 240.41C479.726 240.704 480.989 241.376 481.967 242.339C482.945 243.303 483.594 244.515 483.833 245.822C484.072 247.13 483.889 248.474 483.308 249.685C482.924 250.489 482.373 251.214 481.688 251.82C481.003 252.425 480.197 252.899 479.315 253.213C478.433 253.528 477.494 253.677 476.55 253.653C475.606 253.628 474.677 253.431 473.815 253.071Z" stroke="#263238" stroke-width="1.48791" stroke-linecap="round" stroke-linejoin="round"/>
<path d="M240.016 205.982C238.356 208.912 236.483 211.733 234.41 214.424C223.653 228.367 207.846 238.209 189.91 242.132C171.974 246.056 153.121 243.795 136.834 235.768C135.151 234.944 133.504 234.064 131.93 233.138C130.356 232.213 128.818 231.265 127.341 230.249C125.549 229.041 123.83 227.754 122.183 226.411C122.078 226.338 121.981 226.254 121.893 226.163C111.163 217.311 103.321 205.825 99.2622 193.015C95.2032 180.206 95.0912 166.59 98.9389 153.724C102.787 140.859 110.439 129.261 121.021 120.257C131.604 111.253 144.69 105.205 158.785 102.805C172.879 100.405 187.414 101.749 200.727 106.684C214.041 111.619 225.598 119.946 234.076 130.713C242.555 141.48 247.613 154.253 248.674 167.573C249.735 180.892 246.756 194.222 240.076 206.038L240.016 205.982Z" fill="#19A89D"/>
<g opacity="0.6">
<path d="M240.016 205.982C238.356 208.912 236.483 211.733 234.41 214.424L232.933 213.296L230.39 212.043L227.714 210.734L228.162 207.72L228.017 205C227.86 202.28 229.966 204.503 231.649 203.679C232.962 202.805 234.022 201.642 234.737 200.293C234.737 200.293 235.947 196.67 235.548 195.214C234.896 193.536 234.128 191.9 233.247 190.315L228.913 195.959L225.281 195.699L221.842 194.006L221.394 189.548L219.626 188.69L218.888 186.128L209.335 183.633L208.245 181.85C207.155 180.067 202.76 179.152 202.76 179.152L203.838 176.827L205.533 174.231C207.24 171.635 209.008 175.947 209.008 175.947L211.03 176.929L214.783 173.994L215.776 169.784L221.89 170.112C221.771 169.542 221.864 168.951 222.155 168.437C222.446 167.924 222.916 167.519 223.489 167.29C225.523 166.545 224.627 162.425 223.852 160.901C223.077 159.378 220.22 160.608 220.22 160.608C220.22 160.608 217.108 156.195 216.684 154.434C216.26 152.673 222.617 153.305 225.341 151.533C228.065 149.761 227.133 146.24 225.801 146.16C224.469 146.081 228.404 138.147 235.972 140.325C238.078 140.935 239.41 140.72 240.234 140.043C245.911 150.233 248.857 161.554 248.819 173.037C248.781 184.52 245.761 195.824 240.016 205.982Z" fill="white"/>
<path d="M187.069 175.45L184.478 178.487C184.478 178.487 183.376 176.037 181.802 177.358L179.38 179.367L177.625 183.949L174.477 185.846L172.552 184.909L170.736 184.006L168.762 183.035L166.873 186.421L165.336 189.13C166.085 190.46 167.017 191.693 168.108 192.798L171.45 198.295L175.518 200.214C177.215 200.273 178.904 200.461 180.567 200.778L183.364 202.144L182.371 207.788C182.371 207.788 180.264 210.982 178.86 210.101L177.443 209.232L175.143 216.659L175.046 220.745C175.046 220.745 173.678 221.276 172.297 221.705C170.917 222.133 171.789 221.908 168.895 222.743C166.001 223.578 166.232 223.544 163.883 224.165C161.88 224.818 159.954 225.658 158.131 226.671L158.337 230.599L152.804 231.355L149.704 229.82L150.467 227.337L150.831 223.454L150.407 220.553L149.075 217.991L152.804 214.842L151.981 212.867L149.862 208.939L145.382 211.196L143.082 212.325L137.875 210.147L137.306 207.201L135.563 201.907L133.94 198.611L131.059 194.977L130.332 191.85L131.955 188.983L132.814 187.471L130.163 184.141L129.436 181.771L124.968 177.99C124.968 177.99 126.264 177.911 125.973 176.229C125.683 174.547 128.528 171.714 128.528 171.714C130.138 172.504 134.969 175.642 134.969 175.642L139.195 176.184C139.195 176.184 140.043 176.184 140.866 174.694C141.828 173.324 142.957 172.062 144.232 170.936C144.232 170.936 142.282 164.626 143.675 163.78C145.067 162.933 146.484 158.802 146.484 158.802L147.598 156.827C147.598 156.827 144.97 155.754 144.474 154.456C143.978 153.158 137.5 154.885 137.5 154.885L133.032 157.775L129.509 160.314L127.983 163.012C127.983 163.012 124.872 159.524 124.86 161.477C124.622 163.479 124.151 165.451 123.455 167.358C123.455 167.358 124.097 167.674 123.249 169.186C122.402 170.698 121.481 170.619 119.617 170.834C117.186 170.857 114.757 170.702 112.352 170.371C112.352 170.371 111.141 174.547 111.977 175.27L112.8 175.97C112.8 175.97 111.505 179.006 110.221 178.374L107.098 176.839L102.727 178.487L97.8835 183.475L96.8059 183.272C93.8377 164.713 98.849 145.811 110.75 130.678C122.651 115.544 140.48 105.402 160.359 102.457C160.638 103.586 160.94 104.647 160.94 104.647L159.73 110.223L158.18 112.977L156.848 115.336L154.971 118.654L159.778 122.785L158.749 127.672L156.146 129.196L155.395 132.864L159.863 141.002L161.074 144.197C160.326 145.726 159.958 147.392 159.996 149.073C159.996 149.073 160.541 152.12 162.926 153.328C165.311 154.535 168.447 155.958 168.447 155.958L168.193 160.472L167.115 161.601L168.907 166.466C174.368 168.464 173.847 170.134 174.368 168.464L174.901 166.804L178.618 165.552L183.352 170.823C183.903 170.816 184.447 170.938 184.933 171.179C185.42 171.42 185.834 171.771 186.137 172.2C187.517 173.825 189.672 172.414 187.069 175.45Z" fill="white"/>
<path d="M122.898 214.763C123.031 216.366 120.852 218.375 120.852 218.375L122.632 219.244L123.176 223.759L121.833 226.152C112.309 218.309 105.046 208.367 100.705 197.234L101.673 192.449L105.947 191.884C105.947 191.884 109.773 189.514 111.468 190.146C113.163 190.778 114.713 194.661 114.713 194.661C114.713 194.661 115.924 199.898 115.767 199.796H115.694H115.791L117.534 200.654L118.031 202.72L115.609 207.009H111.71C111.71 207.009 110.936 206.625 110.863 208.51C110.926 209.164 111.139 209.798 111.488 210.368C111.837 210.939 112.313 211.433 112.885 211.817L117.098 210.813L118.224 206.749L122.365 205.993C122.365 205.993 121.772 208.487 122.741 208.961L123.721 209.447L124.303 212.427C123.869 212.667 123.511 213.009 123.264 213.419C123.017 213.829 122.891 214.293 122.898 214.763Z" fill="white"/>
<path d="M142.924 221.152C142.549 220.181 142.391 219.334 139.812 218.07C137.233 216.806 137.391 217.258 136.374 218.307C135.936 218.847 135.338 219.256 134.653 219.482C133.969 219.709 133.229 219.744 132.523 219.583C130.828 219.233 131.712 221.016 131.712 221.016L132.124 225.836L127.341 230.238C128.818 231.253 130.348 232.217 131.93 233.127L132.947 230.215L140.89 232.382C139.207 231.919 140.2 229.775 140.2 229.775L138.505 228.94C138.505 228.94 143.299 222.1 142.924 221.152Z" fill="white"/>
<path d="M192.953 196.094L190.35 193.645L187.371 194.514L186.161 196.772L185.252 198.397L186.463 200.654L188.885 203.397L190.265 200.936C190.265 200.936 194.103 200.936 196.113 198.871C198.123 196.805 192.953 196.094 192.953 196.094Z" fill="white"/>
<path d="M185.301 185.044L190.144 187.415L190.338 186.354C190.59 185.504 191.036 184.714 191.646 184.04L187.941 180.383L185.301 185.044Z" fill="white"/>
<path d="M183.654 237.585L182.262 235.678L180.64 234.888H175.688L172.867 239.877C172.867 239.877 170.166 239.538 166.619 239.245C163.071 238.951 163.943 240.317 163.943 240.317L163.023 243.455C171.974 244.482 181.049 244.027 189.829 242.112C188.809 241.448 187.75 240.838 186.657 240.283L183.654 237.585Z" fill="white"/>
</g>
<path d="M240.016 205.982C238.356 208.912 236.483 211.733 234.41 214.424C223.653 228.367 207.846 238.209 189.91 242.132C171.974 246.056 153.121 243.795 136.834 235.768C135.151 234.944 133.504 234.064 131.93 233.138C130.356 232.213 128.818 231.265 127.341 230.249C125.549 229.041 123.83 227.754 122.183 226.411C122.078 226.338 121.981 226.254 121.893 226.163V226.163C111.163 217.311 103.321 205.825 99.2622 193.015C95.2032 180.206 95.0912 166.59 98.9389 153.724C102.787 140.859 110.439 129.261 121.021 120.257C131.604 111.253 144.69 105.205 158.785 102.805C172.879 100.405 187.414 101.749 200.727 106.684C214.041 111.619 225.598 119.946 234.076 130.713C242.555 141.48 247.613 154.253 248.674 167.573C249.735 180.892 246.756 194.222 240.076 206.038L240.016 205.982Z" stroke="#263238" stroke-width="1.48791" stroke-linecap="round" stroke-linejoin="round"/>
<path d="M189.829 242.112C181.049 244.027 171.974 244.482 163.023 243.455L163.943 240.317C163.943 240.317 163.071 238.951 166.619 239.245C170.166 239.538 172.867 239.877 172.867 239.877L175.688 234.888H180.64L182.262 235.678L183.654 237.585L186.657 240.283C187.75 240.838 188.809 241.448 189.829 242.112Z" stroke="#263238" stroke-width="1.48791" stroke-linecap="round" stroke-linejoin="round"/>
<path d="M240.282 140.054C239.459 140.732 238.127 140.946 236.02 140.336C228.453 138.158 224.53 146.082 225.85 146.172C227.169 146.262 228.102 149.829 225.39 151.544C222.677 153.26 216.309 152.673 216.733 154.445C217.156 156.217 220.268 160.619 220.268 160.619C220.268 160.619 223.053 159.4 223.84 160.913C224.627 162.425 225.523 166.556 223.489 167.301C222.916 167.53 222.446 167.935 222.155 168.449C221.864 168.962 221.771 169.553 221.89 170.123L215.776 169.796L214.783 174.006L211.03 176.94L209.008 175.958C209.008 175.958 207.24 171.647 205.533 174.243L203.838 176.839L202.76 179.164C202.76 179.164 207.155 180.078 208.245 181.861L209.335 183.645L218.888 186.139L219.626 188.701L221.394 189.559L221.842 194.018L225.402 195.756L229.034 196.015L233.369 190.372C234.249 191.956 235.017 193.593 235.669 195.27C236.093 196.726 234.858 200.35 234.858 200.35C234.143 201.698 233.083 202.861 231.77 203.736C230.039 204.56 227.92 202.336 228.138 205.056L228.283 207.776L227.835 210.79L230.511 212.099L233.054 213.352L234.531 214.481" stroke="#263238" stroke-width="1.48791" stroke-linecap="round" stroke-linejoin="round"/>
<path d="M96.9028 183.272L97.9804 183.475L102.823 178.487L107.194 176.839L110.318 178.374C111.602 179.006 112.897 175.97 112.897 175.97L112.074 175.27C111.238 174.547 112.449 170.371 112.449 170.371C114.854 170.702 117.283 170.857 119.714 170.834C121.627 170.62 122.535 170.687 123.346 169.186C124.157 167.685 123.552 167.358 123.552 167.358C124.248 165.451 124.719 163.479 124.956 161.477C124.956 159.524 128.08 163.012 128.08 163.012L129.606 160.314L133.02 157.786L137.488 154.897C137.488 154.897 143.965 153.159 144.462 154.468C144.958 155.777 147.586 156.838 147.586 156.838L146.472 158.813C146.472 158.813 145.043 162.922 143.663 163.791C142.283 164.66 144.22 170.947 144.22 170.947C142.945 172.074 141.815 173.335 140.854 174.705C140.006 176.218 139.183 176.195 139.183 176.195L134.957 175.654C134.957 175.654 130.114 172.516 128.516 171.726C128.516 171.726 125.671 174.559 125.961 176.24C126.252 177.922 124.956 178.001 124.956 178.001L129.424 181.782L130.151 184.153L132.802 187.482L131.943 188.995L130.32 191.862L131.047 194.988L133.928 198.623L135.563 201.907L137.33 207.223L137.9 210.169L143.106 212.348L145.406 211.219L149.886 208.962L152.005 212.889L152.828 214.865L149.099 218.014L150.431 220.576L150.855 223.477L150.492 227.359L149.729 229.843L152.828 231.378L158.362 230.633L158.156 226.693C159.978 225.681 161.905 224.841 163.907 224.188C166.256 223.567 166.026 223.601 168.919 222.766C171.813 221.93 170.929 222.156 172.322 221.727C173.714 221.298 175.07 220.768 175.07 220.768L175.167 216.682L177.468 209.255L178.884 210.124C180.289 211.004 182.395 207.81 182.395 207.81L183.388 202.167L180.531 200.778C178.867 200.462 177.179 200.273 175.482 200.214L171.498 198.261L168.157 192.765C167.065 191.659 166.133 190.426 165.384 189.096L166.922 186.387L168.81 183.001L170.784 183.972L172.6 184.875L174.525 185.812L177.673 183.916L179.429 179.333L181.85 177.324C183.424 175.992 184.526 178.453 184.526 178.453L187.117 175.417C189.721 172.38 187.565 173.791 186.233 172.234C185.931 171.805 185.517 171.454 185.03 171.213C184.543 170.972 184 170.85 183.449 170.857L178.715 165.586L174.949 166.917L174.416 168.577C173.896 170.247 174.416 168.577 168.956 166.579L167.164 161.714L168.241 160.585L168.496 156.071C168.496 156.071 165.36 154.637 162.975 153.441C160.589 152.244 160.045 149.185 160.045 149.185C160.006 147.505 160.375 145.839 161.122 144.309L159.911 141.115L155.444 132.977L156.194 129.309L158.797 127.785L159.827 122.898L155.153 118.767L157.03 115.449L158.362 113.09L159.911 110.336L161.122 104.76C161.122 104.76 160.819 103.721 160.541 102.57" stroke="#263238" stroke-width="1.48791" stroke-linecap="round" stroke-linejoin="round"/>
<path d="M122.244 226.4C122.15 226.299 122.044 226.208 121.929 226.129V226.129L123.273 223.736L122.728 219.221L120.949 218.352C120.949 218.352 123.128 216.343 122.995 214.74C122.971 214.262 123.086 213.787 123.326 213.364C123.567 212.941 123.925 212.586 124.363 212.336L123.782 209.357L122.801 208.871C121.832 208.397 122.426 205.903 122.426 205.903L118.285 206.659L117.159 210.722L112.945 211.727C112.374 211.343 111.897 210.849 111.549 210.278C111.2 209.708 110.986 209.074 110.923 208.42C110.996 206.535 111.771 206.919 111.771 206.919H115.67L118.091 202.63L117.595 200.564L115.851 199.706" stroke="#263238" stroke-width="1.48791" stroke-linecap="round" stroke-linejoin="round"/>
<path d="M115.742 199.706C115.936 199.808 114.689 194.571 114.689 194.571C114.689 194.571 113.139 190.744 111.444 190.056C109.749 189.367 105.923 191.794 105.923 191.794L101.649 192.358L100.68 197.144" stroke="#263238" stroke-width="1.48791" stroke-linecap="round" stroke-linejoin="round"/>
<path d="M132.947 230.215L131.93 233.127C130.316 232.209 128.786 231.246 127.341 230.238L132.124 225.836L131.712 221.016C131.712 221.016 130.828 219.233 132.523 219.583C133.229 219.744 133.969 219.709 134.653 219.482C135.338 219.256 135.936 218.847 136.374 218.307C137.366 217.258 137.245 216.806 139.812 218.07C142.379 219.334 142.549 220.181 142.924 221.152C143.299 222.122 138.505 228.973 138.505 228.973L140.2 229.809C140.2 229.809 139.207 231.953 140.89 232.416L132.947 230.215Z" stroke="#263238" stroke-width="1.48791" stroke-linecap="round" stroke-linejoin="round"/>
<path d="M187.371 194.514L190.35 193.645L192.953 196.094C192.953 196.094 198.099 196.715 196.089 198.803C194.079 200.891 190.241 200.869 190.241 200.869L188.836 203.329L186.415 200.587L185.204 198.329L186.112 196.704L187.371 194.514Z" stroke="#263238" stroke-width="1.48791" stroke-linecap="round" stroke-linejoin="round"/>
<path d="M191.646 184.04C191.036 184.714 190.59 185.504 190.338 186.354L190.144 187.415L185.301 185.044L187.941 180.383L191.646 184.04Z" stroke="#263238" stroke-width="1.48791" stroke-linecap="round" stroke-linejoin="round"/>
<path d="M454.395 450.278C447.905 455.312 397.913 487.299 326.574 482.141C322.736 451.87 308.098 327.509 324.746 308.005C324.746 308.005 365.137 290.047 402.344 297.587C439.551 305.127 454.032 312.351 456.683 318.604C458.693 323.333 455.824 411.394 454.395 450.278Z" fill="#263238"/>
<path d="M401.108 310.872C379.678 328.175 352.072 324.518 352.678 311.233C352.774 309.156 355.16 306.583 355.16 306.583L354.324 305.387L350.692 300.274C348.04 296.447 344.723 291.639 342.41 288.14C340.473 285.16 388.771 257.462 388.771 273.388C388.771 295.826 400.588 300.048 400.588 300.048C405.043 301.718 409.196 304.359 401.108 310.872Z" fill="white" stroke="#263238" stroke-width="1.48791" stroke-linecap="round" stroke-linejoin="round"/>
<path d="M414.657 345.139C414.657 345.139 410.335 358.955 412.381 362.916" stroke="white" stroke-width="1.48791" stroke-linecap="round" stroke-linejoin="round"/>
<path d="M409.609 305.025C409.609 318.355 366.953 331.414 354.458 318.039" stroke="white" stroke-width="1.48791" stroke-linecap="round" stroke-linejoin="round"/>
<path d="M374.52 289.641C374.52 289.641 371.663 299.687 358.344 307.531C357.709 306.514 356.683 305.76 355.475 305.42C355.074 305.36 354.665 305.36 354.264 305.42L350.632 300.307C357.521 295.68 374.52 289.641 374.52 289.641Z" fill="#263238"/>
<path d="M380.501 277.293C380.501 277.293 380.356 287.203 378.08 289.223C361.19 304.326 344.675 305.522 341.95 301.538C323.607 274.72 327.942 267.677 326.077 263.083C322.772 255.024 318.716 241.863 320.508 233.895C324.503 216.095 360.463 202.291 379.4 220.192C388.48 228.759 391.35 247.349 389.437 262.834" fill="white"/>
<path d="M380.501 277.293C380.501 277.293 380.356 287.203 378.08 289.223C361.19 304.326 344.675 305.522 341.95 301.538C323.607 274.72 327.942 267.677 326.077 263.083C322.772 255.024 318.716 241.863 320.508 233.895C324.503 216.095 360.463 202.291 379.4 220.192C388.48 228.759 391.35 247.349 389.437 262.834" stroke="#263238" stroke-width="1.48791" stroke-linecap="round" stroke-linejoin="round"/>
<path d="M328.39 254.798C328.39 254.798 323.341 252.687 322.251 255.204" stroke="#263238" stroke-width="1.48791" stroke-linecap="round" stroke-linejoin="round"/>
<path d="M340.63 254.956C340.63 254.956 351.128 250.859 355.85 255.836" stroke="#263238" stroke-width="1.48791" stroke-linecap="round" stroke-linejoin="round"/>
<path d="M352.291 261.898C352.46 263.365 351.697 264.64 350.571 264.765C349.445 264.889 348.404 263.771 348.234 262.304C348.065 260.837 348.828 259.55 349.954 259.437C351.08 259.324 352.073 260.43 352.291 261.898Z" fill="#263238"/>
<path d="M331.707 262.338C331.889 263.805 331.114 265.092 329.988 265.205C328.862 265.318 327.821 264.223 327.651 262.755C327.481 261.288 328.244 260.001 329.37 259.889C330.496 259.776 331.513 260.871 331.707 262.338Z" fill="#263238"/>
<path d="M332.216 258.478C333.681 260.679 332.882 264.437 330.945 269.595C329.007 274.754 330.715 276.616 338.149 277.135" fill="white"/>
<path d="M332.216 258.478C333.681 260.679 332.882 264.437 330.945 269.595C329.007 274.754 330.715 276.616 338.149 277.135" stroke="#263238" stroke-width="1.48791" stroke-linecap="round" stroke-linejoin="round"/>
<path d="M338.148 286.063C338.148 286.063 347.835 285.239 352.266 282.971" stroke="#263238" stroke-width="1.48791" stroke-linecap="round" stroke-linejoin="round"/>
<path d="M399.511 234.888C399.511 228.183 392.415 214.424 379.969 212.878C372.813 205.903 362.618 203.341 350.244 205.993C321.646 212.111 312.94 238.432 311.693 242.789C311.572 243.195 311.512 243.421 311.512 243.421L319.164 241.615L315.871 247.608L319.878 250.08L318.958 251.028L323.607 255.204L322.154 247.574C323.05 242.653 329.128 235.768 329.128 235.768C326.91 238.449 325.528 241.647 325.133 245.012C327.554 239.154 342.084 233.725 342.084 233.725C337.374 237.292 334.819 244.267 334.819 244.267C339.299 239.12 349.796 235.791 356.516 234.019C358.78 239.109 362.376 244.425 367.51 247.371C372.353 250.148 372.183 255.882 372.183 255.882C377.394 259.258 381.233 264.173 383.08 269.832L388.94 277.304C388.94 277.304 399.511 265.216 399.511 234.888Z" fill="#263238"/>
<path d="M374.847 257.8C372.886 253.884 380.005 243.274 385.054 244.583C387.887 245.328 391.592 250.148 392.319 255.204C393.045 260.261 389.207 269.878 385.114 271.966C382.511 273.32 380.368 269.629 380.368 269.629" fill="white"/>
<path d="M374.847 257.8C372.886 253.884 380.005 243.274 385.054 244.583C387.887 245.328 391.592 250.148 392.319 255.204C393.045 260.261 389.207 269.878 385.114 271.966C382.511 273.32 380.368 269.629 380.368 269.629" stroke="#263238" stroke-width="1.48791" stroke-linecap="round" stroke-linejoin="round"/>
<path d="M65.9551 449.375L202.76 419.555L488.114 450.278L414.645 497.119L65.9551 449.375Z" fill="white"/>
<path d="M65.9551 449.375L202.76 419.555L488.114 450.278" fill="white"/>
<path d="M65.9551 449.375L202.76 419.555L488.114 450.278" stroke="#263238" stroke-width="1.48791" stroke-linecap="round" stroke-linejoin="round"/>
<path d="M184.344 455.357L239.725 432.535L309.744 435.91L278.603 460.73L184.344 455.357Z" fill="white" stroke="#263238" stroke-width="1.48791" stroke-linecap="round" stroke-linejoin="round"/>
<path d="M327.445 306.876C309.683 313.649 305.857 328.875 275.673 389.046C275.673 389.046 262.27 391.608 255.09 406.789C247.91 421.97 259.933 433.957 273.772 433.551C273.772 433.551 279.329 438.065 290.723 437.603C302.116 437.14 352.472 365.309 352.472 365.309L327.445 306.876Z" fill="#263238"/>
<path d="M280.964 392.579C288.907 399.17 293.471 408.843 291.05 419.566" stroke="white" stroke-width="1.48791" stroke-linecap="round" stroke-linejoin="round"/>
<path d="M288.628 395.75C288.628 395.75 298.387 397.737 299.9 409.385" stroke="white" stroke-width="1.48791" stroke-linecap="round" stroke-linejoin="round"/>
<path d="M317.178 361.664C312.568 351.059 310.974 339.523 312.553 328.175" stroke="white" stroke-width="1.48791" stroke-linecap="round" stroke-linejoin="round"/>
<path d="M315.798 346.313C315.059 351.054 320.314 376.292 320.278 402.827" stroke="white" stroke-width="1.48791" stroke-linecap="round" stroke-linejoin="round"/>
<path d="M448.571 311.865C470.789 322.272 473.428 354.293 452.47 392.579C437.662 419.6 417.224 459.5 404.293 462.175C391.362 464.85 378.746 457.344 378.746 457.344C378.746 457.344 367.849 456.87 364.556 449.646C355.547 429.905 378.443 404.961 387.403 410.931C387.403 410.931 416.171 352.611 421.413 348.932" fill="#263238"/>
<path d="M362.497 437.648C359.555 424.024 382.56 407.952 387.403 410.932C387.403 410.932 404.487 411.823 407.041 422.839" stroke="white" stroke-width="1.48791" stroke-linecap="round" stroke-linejoin="round"/>
<path d="M425.082 440.549C435.083 424.103 452.47 392.579 452.47 392.579" stroke="white" stroke-width="1.48791" stroke-linecap="round" stroke-linejoin="round"/>
<path d="M387.403 410.931C387.403 410.931 399.377 404.25 408.325 410.57" stroke="white" stroke-width="1.48791" stroke-linecap="round" stroke-linejoin="round"/>
<path d="M391.495 402.816C391.495 402.816 398.106 389.272 404.814 376.856C411.521 364.44 426.874 346.054 433.255 345.162" stroke="white" stroke-width="1.48791" stroke-linecap="round" stroke-linejoin="round"/>
<path d="M265.308 427.162C263.87 427.097 262.465 426.739 261.192 426.113C240.609 416.101 224.602 399.554 214.965 387.68C211.218 383.142 207.769 378.397 204.637 373.47L209.577 353.74C209.577 353.74 214.226 365.027 232.908 376.122C251.59 387.217 273.784 390.874 280.964 402.083C287.32 411.846 276.121 427.648 265.308 427.162Z" fill="white"/>
<path opacity="0.4" d="M265.308 427.162C265.079 425.735 264.672 424.337 264.098 422.997C259.775 412.907 233.623 392.85 233.623 392.85C227.399 392.669 220.558 390.254 214.989 387.68C211.233 383.143 207.776 378.397 204.637 373.47L209.577 353.74C209.577 353.74 214.226 365.027 232.908 376.122C251.59 387.217 273.784 390.874 280.964 402.083C287.32 411.846 276.121 427.648 265.308 427.162Z" fill="#19A89D"/>
<path d="M265.308 427.162C263.87 427.097 262.465 426.739 261.192 426.113C240.609 416.101 224.602 399.554 214.965 387.68C211.218 383.142 207.769 378.397 204.637 373.47L209.577 353.74C209.577 353.74 214.226 365.027 232.908 376.122C251.59 387.217 273.784 390.874 280.964 402.083C287.32 411.846 276.121 427.648 265.308 427.162Z" stroke="#263238" stroke-width="1.48791" stroke-linecap="round" stroke-linejoin="round"/>
<path d="M218.694 372.273C218.694 372.273 216.139 382.793 209.407 380.434C205.775 379.159 198.777 369.045 197.457 363.944L218.694 372.273Z" fill="white" stroke="#263238" stroke-width="1.48791" stroke-linecap="round" stroke-linejoin="round"/>
<path d="M189.018 307.497L194.515 304.856C194.515 304.856 210.049 304.98 219.687 312.283C228.441 318.92 232.884 329.315 232.884 329.315C232.884 329.315 266.895 311.809 301.632 321.854L315.798 395.457L250.671 399.43L210.025 363.436L189.018 307.497Z" fill="white" stroke="#263238" stroke-width="1.48791" stroke-linecap="round" stroke-linejoin="round"/>
<path d="M320.278 398.403C320.278 398.403 312.638 398.188 302.419 398.504C286.969 398.956 265.623 400.581 255.865 405.875L255.405 405.728L246.469 402.816L246.287 402.568C244.641 400.31 231.359 382.533 212.386 375.298L185.555 305.409C185.555 305.409 213.403 306.538 228.622 329.992L236.262 332.566C236.262 332.566 281.727 320.015 307.177 324.529L320.278 398.403Z" fill="#19A89D"/>
<path opacity="0.3" d="M246.287 402.579C244.641 400.322 231.359 382.545 212.386 375.31L185.555 305.42C185.555 305.42 213.403 306.549 228.622 330.004L246.287 402.579Z" fill="black" fill-opacity="0.7"/>
<path opacity="0.3" d="M302.419 398.504C286.97 398.956 265.624 400.581 255.865 405.875L255.405 405.728L237.558 335.094C237.558 335.094 252.16 332.035 256.652 333.581C256.64 333.604 286.328 354.022 302.419 398.504Z" fill="black" fill-opacity="0.7"/>
<path d="M320.278 398.403C320.278 398.403 312.638 398.188 302.419 398.504C286.969 398.956 265.623 400.581 255.865 405.875L255.405 405.728L246.469 402.816L246.287 402.568C244.641 400.31 231.359 382.533 212.386 375.298L185.555 305.409C185.555 305.409 213.403 306.538 228.622 329.992L236.262 332.566C236.262 332.566 281.727 320.015 307.177 324.529L320.278 398.403Z" stroke="#263238" stroke-width="1.48791" stroke-linecap="round" stroke-linejoin="round"/>
<path d="M236.287 332.577L253.806 400.333" stroke="#263238" stroke-width="1.48791" stroke-linecap="round" stroke-linejoin="round"/>
<path d="M246.469 402.827L229.446 335.117" stroke="#263238" stroke-width="1.48791" stroke-linecap="round" stroke-linejoin="round"/>
<path d="M203.221 373.526C199.334 372.522 191.5 350.749 195.084 341.37C195.084 341.37 199.346 334.473 201.138 333.999C203.85 333.265 214.795 333.48 214.263 335.196C213.052 339.169 204.649 339.101 204.649 339.101L201.925 343.751L202.034 346.313C202.034 346.313 205.993 343.627 207.446 343.706C208.197 343.706 212.071 345.512 215.147 347.024C217.774 348.322 219.384 349.033 218.779 350.207C216.83 354.113 208.536 351.336 208.536 351.336L205.412 355.727C205.412 355.727 208.427 356.212 209.747 356.347C211.066 356.483 222.024 363.289 221.697 364.136C220.401 367.454 210.013 363.865 210.013 363.865L208.173 365.298C208.173 365.298 215.825 367.138 216.648 367.409C217.859 367.826 222.52 371.167 222.448 371.551C221.891 374.486 215.461 372.33 215.461 372.33L209.831 372.115C208.974 372.821 207.942 373.317 206.829 373.56" fill="white"/>
<path d="M203.221 373.526C199.334 372.522 191.5 350.749 195.084 341.37C195.084 341.37 199.346 334.473 201.138 333.999C203.85 333.265 214.795 333.48 214.263 335.196C213.052 339.169 204.649 339.101 204.649 339.101L201.925 343.751L202.034 346.313C202.034 346.313 205.993 343.627 207.446 343.706C208.197 343.706 212.071 345.512 215.147 347.024C217.774 348.322 219.384 349.033 218.779 350.207C216.83 354.113 208.536 351.336 208.536 351.336L205.412 355.727C205.412 355.727 208.427 356.212 209.747 356.347C211.066 356.483 222.024 363.289 221.697 364.136C220.401 367.454 210.013 363.865 210.013 363.865L208.173 365.298C208.173 365.298 215.825 367.138 216.648 367.409C217.859 367.826 222.52 371.167 222.448 371.551C221.891 374.486 215.461 372.33 215.461 372.33L209.831 372.115C208.974 372.821 207.942 373.317 206.829 373.56" stroke="#263238" stroke-width="1.48791" stroke-linecap="round" stroke-linejoin="round"/>
<path d="M201.985 346.313C201.985 346.313 198.353 349.158 197.421 349.982C196.488 350.806 196.718 353.424 196.718 353.424" stroke="#263238" stroke-width="1.48791" stroke-linecap="round" stroke-linejoin="round"/>
<path d="M199.358 359.203C199.358 362.07 201.416 363.808 202.361 364.734C203.305 365.659 200.847 368.176 203.571 369.982" stroke="#263238" stroke-width="1.48791" stroke-linecap="round" stroke-linejoin="round"/>
<path d="M378.697 450.075C371.009 452.027 362.655 439.431 352.46 425.684C345.728 416.654 338.197 407.026 329.54 400.852C328.85 400.367 328.148 399.893 327.445 399.441L332.506 375.739C343.016 380.874 349.53 389.102 360.439 397.556C377.995 411.18 393.553 419.543 397.864 425.571C402.174 431.598 391.87 446.723 378.697 450.075Z" fill="white"/>
<path opacity="0.4" d="M352.46 425.672C345.728 416.643 338.197 407.015 329.54 400.841C330.681 400.895 331.822 400.734 332.894 400.367C332.894 400.367 346.576 410.717 352.46 425.672Z" fill="#19A89D"/>
<path d="M378.697 450.075C371.009 452.027 362.655 439.431 352.46 425.684C345.728 416.654 338.197 407.026 329.54 400.852C328.85 400.367 328.148 399.893 327.445 399.441L332.506 375.739C343.016 380.874 349.53 389.102 360.439 397.556C377.995 411.18 393.553 419.543 397.864 425.571C402.174 431.598 391.87 446.723 378.697 450.075Z" stroke="#263238" stroke-width="1.48791" stroke-linecap="round" stroke-linejoin="round"/>
<path d="M335.34 398.504C334.814 399.381 333.947 400.035 332.918 400.333C332.645 400.433 332.366 400.52 332.083 400.593H331.853C323.728 402.568 305.446 398.459 305.446 398.459C305.446 398.459 293.471 393.154 292.745 391.902C292.239 390.909 291.79 389.892 291.401 388.854L291.074 387.962C291.074 387.962 286.764 385.705 286.231 383.944C285.698 382.183 284.79 381.687 287.442 381.371C290.093 381.055 304.392 381.371 304.392 381.371L288.834 375.456C288.834 375.456 278.53 370.614 277.574 368.91C276.617 367.206 275.419 366.077 280.686 366.754C285.952 367.431 297.455 370.547 297.455 370.547L306.523 372.341L297.515 368.763C297.515 368.763 279.79 366.765 283.143 361.63H293.205C298.905 361.864 304.574 362.536 310.156 363.639C313.086 364.474 332.458 375.693 332.458 375.693" fill="white"/>
<path opacity="0.4" d="M331.828 400.638C323.704 402.613 305.421 398.504 305.421 398.504C305.421 398.504 293.447 393.2 292.72 391.947C292.214 390.954 291.766 389.937 291.376 388.899L306.075 390.4C305.561 391.264 305.291 392.235 305.291 393.222C305.291 394.21 305.561 395.181 306.075 396.044C307.71 398.787 326.331 401.563 331.828 400.638Z" fill="#19A89D"/>
<path d="M335.34 398.504C334.814 399.381 333.947 400.035 332.918 400.333C332.645 400.433 332.366 400.52 332.083 400.593H331.853C323.728 402.568 305.446 398.459 305.446 398.459C305.446 398.459 293.471 393.154 292.745 391.902C292.239 390.909 291.79 389.892 291.401 388.854L291.074 387.962C291.074 387.962 286.764 385.705 286.231 383.944C285.698 382.183 284.79 381.687 287.442 381.371C290.093 381.055 304.392 381.371 304.392 381.371L288.834 375.456C288.834 375.456 278.53 370.614 277.574 368.91C276.617 367.206 275.419 366.077 280.686 366.754C285.952 367.431 297.455 370.547 297.455 370.547L306.523 372.341L297.515 368.763C297.515 368.763 279.79 366.765 283.143 361.63H293.205C298.905 361.864 304.574 362.536 310.156 363.639C313.086 364.474 332.458 375.693 332.458 375.693" stroke="#263238" stroke-width="1.48791" stroke-linecap="round" stroke-linejoin="round"/>
<path d="M291.049 388.008L308.739 390.434" stroke="#263238" stroke-width="1.48791" stroke-linecap="round" stroke-linejoin="round"/>
<path d="M114.713 438.506L159.051 450.921L240.173 433.664C240.173 433.664 190.628 420.548 190.168 420.875C189.708 421.203 114.713 438.506 114.713 438.506Z" fill="#19A89D"/>
<path opacity="0.3" d="M114.713 438.506L159.051 450.921L240.173 433.664C240.173 433.664 190.628 420.548 190.168 420.875C189.708 421.203 114.713 438.506 114.713 438.506Z" fill="black" fill-opacity="0.7"/>
<path d="M114.713 438.506L159.051 450.921L240.173 433.664C240.173 433.664 190.628 420.548 190.168 420.875C189.708 421.203 114.713 438.506 114.713 438.506Z" stroke="#263238" stroke-width="1.48791" stroke-linecap="round" stroke-linejoin="round"/>
<path d="M115.354 423.945C112.243 424.149 111.468 434.6 114.713 438.506L186.342 424.645L192.081 411.981L115.354 423.945Z" fill="#19A89D"/>
<path opacity="0.3" d="M115.354 423.945C112.243 424.149 111.468 434.6 114.713 438.506L186.342 424.645L192.081 411.981L115.354 423.945Z" fill="black" fill-opacity="0.7"/>
<path d="M115.354 423.945C112.243 424.149 111.468 434.6 114.713 438.506L186.342 424.645L192.081 411.981L115.354 423.945Z" stroke="#263238" stroke-width="1.48791" stroke-linecap="round" stroke-linejoin="round"/>
<path d="M236.698 423.799C236.698 423.799 235.633 429.295 236.323 432.682L158.967 449.003L118.188 437.806C118.188 437.806 113.95 430.819 117.643 425.39L192.154 413.595L236.698 423.799Z" fill="white" stroke="#263238" stroke-width="1.48791" stroke-linecap="round" stroke-linejoin="round"/>
<path d="M115.354 423.945L192.081 411.981L239.725 423.234L159.596 438.122L115.354 423.945Z" fill="#19A89D" stroke="#263238" stroke-width="1.48791" stroke-linecap="round" stroke-linejoin="round"/>
<path d="M118.079 430.627L158.652 441.892L225.063 429.431" stroke="#263238" stroke-width="1.48791" stroke-linecap="round" stroke-linejoin="round"/>
<path d="M236.105 430.582L164.693 444.781" stroke="#263238" stroke-width="1.48791" stroke-linecap="round" stroke-linejoin="round"/>
<path d="M119.036 435.063C119.653 435.12 149.62 443.72 149.62 443.72" stroke="#263238" stroke-width="1.48791" stroke-linecap="round" stroke-linejoin="round"/>
<path d="M230.269 427.975L235.948 427.117" stroke="#263238" stroke-width="1.48791" stroke-linecap="round" stroke-linejoin="round"/>
<path d="M157.332 445.808L154.317 445.176" stroke="#263238" stroke-width="1.48791" stroke-linecap="round" stroke-linejoin="round"/>
<path d="M117.643 425.39C119.231 427.095 120.15 429.253 120.249 431.509C120.348 433.765 119.621 435.986 118.188 437.806C116.862 435.991 116.107 433.865 116.011 431.671C115.915 429.476 116.48 427.3 117.643 425.39Z" fill="#263238"/>
<path opacity="0.3" d="M117.643 425.39C119.231 427.095 120.15 429.253 120.249 431.509C120.348 433.765 119.621 435.986 118.188 437.806C116.862 435.991 116.107 433.865 116.011 431.671C115.915 429.476 116.48 427.3 117.643 425.39Z" fill="white" fill-opacity="0.7"/>
<path d="M117.643 425.39C119.231 427.095 120.15 429.253 120.249 431.509C120.348 433.765 119.621 435.986 118.188 437.806C116.862 435.991 116.107 433.865 116.011 431.671C115.915 429.476 116.48 427.3 117.643 425.39Z" stroke="#263238" stroke-width="1.48791" stroke-linecap="round" stroke-linejoin="round"/>
<path d="M283.361 441.892L360.79 444.849L353.247 469.692L257.996 466.306L283.361 441.892Z" fill="white"/>
<path opacity="0.4" d="M283.361 441.892L360.79 444.849L353.247 469.692L257.996 466.306L283.361 441.892Z" fill="#19A89D"/>
<path d="M283.361 441.892L360.79 444.849L353.247 469.692L257.996 466.306L283.361 441.892Z" stroke="#263238" stroke-width="1.48791" stroke-linecap="round" stroke-linejoin="round"/>
</svg>
