<svg width="108" height="80" viewBox="0 0 108 80" fill="none" xmlns="http://www.w3.org/2000/svg">
<path fill-rule="evenodd" clip-rule="evenodd" d="M100.489 80C100.489 80 107.166 80 107.166 73.3333C107.166 66.6667 100.489 46.6667 73.7812 46.6667C47.0731 46.6667 40.3961 66.6667 40.3961 73.3333C40.3961 80 47.0731 80 47.0731 80H100.489ZM47.22 73.3333C47.1707 73.3265 47.1217 73.3176 47.0731 73.3067C47.0798 71.5467 48.1882 66.44 52.1477 61.84C55.8334 57.5267 62.3101 53.3333 73.7812 53.3333C85.2456 53.3333 91.7223 57.5333 95.4147 61.84C99.3742 66.44 100.476 71.5533 100.489 73.3067L100.436 73.32C100.405 73.3252 100.374 73.3297 100.342 73.3333H47.22ZM73.7812 33.3333C77.3229 33.3333 80.7196 31.9286 83.2239 29.4281C85.7283 26.9276 87.1352 23.5362 87.1352 20C87.1352 16.4638 85.7283 13.0724 83.2239 10.5719C80.7196 8.07142 77.3229 6.66667 73.7812 6.66667C70.2395 6.66667 66.8428 8.07142 64.3385 10.5719C61.8341 13.0724 60.4272 16.4638 60.4272 20C60.4272 23.5362 61.8341 26.9276 64.3385 29.4281C66.8428 31.9286 70.2395 33.3333 73.7812 33.3333ZM93.8122 20C93.8122 22.6264 93.2941 25.2272 92.2875 27.6537C91.2808 30.0802 89.8053 32.285 87.9453 34.1421C86.0852 35.9993 83.877 37.4725 81.4467 38.4776C79.0165 39.4827 76.4117 40 73.7812 40C71.1507 40 68.5459 39.4827 66.1156 38.4776C63.6854 37.4725 61.4771 35.9993 59.6171 34.1421C57.757 32.285 56.2816 30.0802 55.2749 27.6537C54.2682 25.2272 53.7501 22.6264 53.7501 20C53.7501 14.6957 55.8605 9.60859 59.6171 5.85786C63.3736 2.10714 68.4686 0 73.7812 0C79.0938 0 84.1887 2.10714 87.9453 5.85786C91.7018 9.60859 93.8122 14.6957 93.8122 20ZM33.1849 53.3333L33.1804 53.3401L33.1849 53.34V53.3333Z" fill="#656565"/>
<path fill-rule="evenodd" clip-rule="evenodd" d="M10.3495 23.3333C10.3495 18.029 12.4599 12.9419 16.2165 9.1912C19.973 5.44047 25.068 3.33333 30.3806 3.33333C35.6931 3.33333 40.7881 5.44047 44.5447 9.1912C48.3012 12.9419 50.4116 18.029 50.4116 23.3333C50.4116 28.6377 48.3012 33.7247 44.5447 37.4755C40.7881 41.2262 35.6931 43.3333 30.3806 43.3333C25.068 43.3333 19.973 41.2262 16.2165 37.4755C12.4599 33.7247 10.3495 28.6377 10.3495 23.3333ZM20.9378 13.9052C23.4422 11.4048 26.8389 10 30.3806 10C33.9223 10 37.3189 11.4048 39.8233 13.9052C42.3277 16.4057 43.7346 19.7971 43.7346 23.3333C43.7346 26.8696 42.3277 30.2609 39.8233 32.7614C37.3189 35.2619 33.9223 36.6667 30.3806 36.6667C26.8389 36.6667 23.4422 35.2619 20.9378 32.7614C18.4335 30.2609 17.0265 26.8696 17.0265 23.3333C17.0265 19.7971 18.4335 16.4057 20.9378 13.9052Z" fill="#D7E026"/>
<path fill-rule="evenodd" clip-rule="evenodd" d="M46.6458 48.5333C43.9749 47.6936 41.2216 47.1416 38.4331 46.8867C36.8662 46.7379 35.293 46.6645 33.7191 46.6667C7.011 46.6667 0.333984 66.6667 0.333984 73.3333C0.333984 77.78 2.55743 80 7.011 80H35.1613C34.1715 77.9188 33.6778 75.6369 33.7191 73.3333C33.7191 66.6 36.2363 59.72 40.997 53.9733C42.6195 52.0133 44.5091 50.18 46.6458 48.5333ZM27.0421 73.3333H7.011C7.011 71.6 8.10603 66.4667 12.0855 61.84C15.724 57.6006 22.046 53.4678 33.1804 53.3401L33.1849 53.3333V53.34L33.1804 53.3401C29.2315 59.2671 27.0984 66.2148 27.0421 73.3333Z" fill="#D7E026"/>
</svg>
