<svg width="69" height="47" viewBox="0 0 69 47" fill="none" xmlns="http://www.w3.org/2000/svg">
<path d="M67.5623 7.93655C67.1716 6.56304 66.4106 5.31953 65.3601 4.33822C64.2799 3.32673 62.956 2.60319 61.5133 2.23589C56.1141 0.833386 34.4826 0.833386 34.4826 0.833386C25.4646 0.732272 16.4489 1.177 7.48632 2.16505C6.04362 2.55949 4.72219 3.2992 3.63957 4.31839C2.57582 5.32705 1.80532 6.57089 1.40282 7.93372C0.435939 13.067 -0.0338392 18.2792 -0.000178723 23.5001C-0.0346787 28.7162 0.433946 33.9267 1.40282 39.0664C1.7967 40.4235 2.56432 41.6617 3.63095 42.6619C4.69757 43.6621 6.02582 44.3846 7.48632 44.7671C12.9574 46.1667 34.4826 46.1667 34.4826 46.1667C43.512 46.268 52.5392 45.8232 61.5133 44.8351C62.956 44.4678 64.2799 43.7442 65.3601 42.7327C66.4102 41.7516 67.1704 40.5079 67.5594 39.1344C68.5516 34.0031 69.034 28.7887 68.9998 23.5652C69.0744 18.3196 68.5927 13.0807 67.5623 7.93372V7.93655ZM27.6056 33.2014V13.8016L45.6031 23.5029L27.6056 33.2014Z" fill="#E9E9E9"/>
</svg>
